HIERARCHY
ROOT SpineBase
{
  OFFSET 0.000000 0.000000 0.000000
  CHANNELS 6 Xposition Yposition Zposition Zrotation Xrotation Yrotation
  JOINT SpineMid
  {
    OFFSET 0.000000 28.619468 -0.000000
    CHANNELS 3 Zrotation Xrotation Yrotation
    JOINT SpineShoulder
    {
      OFFSET -0.226192 21.273401 -0.689192
      CHANNELS 3 Zrotation Xrotation Yrotation
      JOINT Neck
      {
        OFFSET -0.114616 7.032194 -0.526814
        CHANNELS 3 Zrotation Xrotation Yrotation
        JOINT Head
        {
          OFFSET 3.774033 12.798052 -0.474393
          CHANNELS 3 Zrotation Xrotation Yrotation
          End Site
          {
            OFFSET 0 0 0
          }
        }
      }
      JOINT ShoulderLeft
      {
        OFFSET -13.559496 -3.954508 -7.610702
        CHANNELS 3 Zrotation Xrotation Yrotation
        JOINT ElbowLeft
        {
          OFFSET -5.248854 -23.808330 0.269980
          CHANNELS 3 Zrotation Xrotation Yrotation
          JOINT WristLeft
          {
            OFFSET -0.105934 -17.973580 -4.239510
            CHANNELS 3 Zrotation Xrotation Yrotation
            JOINT HandLeft
            {
              OFFSET 1.238683 -7.455855 -0.401939
              CHANNELS 3 Zrotation Xrotation Yrotation
              JOINT HandTipLeft
              {
                OFFSET -0.257635 -6.181642 -1.453210
                CHANNELS 3 Zrotation Xrotation Yrotation
                End Site
                {
                  OFFSET 0 0 0
                }
              }
              JOINT ThumbLeft
              {
                OFFSET 2.771167 -0.125213 -1.546076
                CHANNELS 3 Zrotation Xrotation Yrotation
                End Site
                {
                  OFFSET 0 0 0
                }
              }
            }
          }
        }
      }
      JOINT ShoulderRight
      {
        OFFSET 15.642889 -5.005395 2.171350
        CHANNELS 3 Zrotation Xrotation Yrotation
        JOINT ElbowRight
        {
          OFFSET 2.302033 -23.783985 3.624287
          CHANNELS 3 Zrotation Xrotation Yrotation
          JOINT WristRight
          {
            OFFSET 1.696059 -23.296390 -4.610449
            CHANNELS 3 Zrotation Xrotation Yrotation
            JOINT HandRight
            {
              OFFSET -0.636635 -4.523710 -0.221791
              CHANNELS 3 Zrotation Xrotation Yrotation
              JOINT HandTipRight
              {
                OFFSET -0.578464 -6.529515 -1.232053
                CHANNELS 3 Zrotation Xrotation Yrotation
                End Site
                {
                  OFFSET 0 0 0
                }
              }
              JOINT ThumbRight
              {
                OFFSET 2.014986 -0.225437 -1.776075
                CHANNELS 3 Zrotation Xrotation Yrotation
                End Site
                {
                  OFFSET 0 0 0
                }
              }
            }
          }
        }
      }
    }
  }
  JOINT HipLeft
  {
    OFFSET -5.505357 0.845615 -4.964328
    CHANNELS 3 Zrotation Xrotation Yrotation
    JOINT KneeLeft
    {
      OFFSET -6.907906 -28.409418 5.535399
      CHANNELS 3 Zrotation Xrotation Yrotation
      JOINT AnkleLeft
      {
        OFFSET -2.048683 -32.270757 8.801301
        CHANNELS 3 Zrotation Xrotation Yrotation
        JOINT FootLeft
        {
          OFFSET 2.257344 -3.237329 -10.713785
          CHANNELS 3 Zrotation Xrotation Yrotation
          End Site
          {
            OFFSET 0 0 0
          }
        }
      }
    }
  }
  JOINT HipRight
  {
    OFFSET 4.965492 0.348693 -1.692530
    CHANNELS 3 Zrotation Xrotation Yrotation
    JOINT KneeRight
    {
      OFFSET -2.237092 -27.738858 7.218017
      CHANNELS 3 Zrotation Xrotation Yrotation
      JOINT AnkleRight
      {
        OFFSET -6.685892 -33.784543 8.586293
        CHANNELS 3 Zrotation Xrotation Yrotation
        JOINT FootRight
        {
          OFFSET 0.336448 -3.274830 -9.678559
          CHANNELS 3 Zrotation Xrotation Yrotation
          End Site
          {
            OFFSET 0 0 0
          }
        }
      }
    }
  }
}
MOTION
Frames: 9
Frame Time: 0.033333
29.138822 70.519620 358.005356 0.299057 2.674925 -16.272564 -0.535539 -0.574205 16.260184 -0.581223 -0.195245 -0.063085 7.043892 -3.315887 0.947901 0.000000 0.000000 0.000000 -134.087545 40.508984 51.490299 -89.847353 25.707365 -66.798893 -13.076374 -34.681470 84.656543 28.069749 27.220887 -85.923876 0.000000 0.000000 0.000000 0.000000 0.000000 0.000000 117.968348 23.885647 -4.429365 103.527832 8.546478 80.136379 22.916965 -22.053004 -43.617985 -14.993499 9.346360 36.330021 0.000000 0.000000 0.000000 0.000000 0.000000 0.000000 -0.545563 8.476458 14.021394 -2.756732 -16.021027 1.894235 0.739066 5.607406 1.853797 0.000000 0.000000 0.000000 1.903730 1.502719 16.668784 -2.376435 -7.382170 0.367466 2.594202 -0.094429 -10.563517 0.000000 0.000000 0.000000
29.056835 70.638670 357.931461 0.052195 2.503927 -16.046488 -0.472283 -0.635074 16.032012 -0.566223 -0.258220 -0.072378 8.565349 -2.305577 0.789642 0.000000 0.000000 0.000000 -136.544441 38.545130 51.523814 -87.619218 20.542202 -56.976757 -27.800487 -35.836362 73.631187 30.801164 23.486762 -77.585086 0.000000 0.000000 0.000000 0.000000 0.000000 0.000000 116.177661 22.892992 -3.292758 107.091070 5.687102 71.637662 24.480690 -17.518435 -39.703547 -14.904457 8.436323 36.245035 0.000000 0.000000 0.000000 0.000000 0.000000 0.000000 0.613598 8.442273 14.045984 -4.045921 -15.322349 1.347035 1.070989 5.384214 1.917523 0.000000 0.000000 0.000000 1.224213 0.682331 16.210265 -0.245450 -6.196602 0.879612 1.589614 1.844423 -9.612379 0.000000 0.000000 0.000000
29.025889 70.728567 357.843077 -0.044397 2.305014 -15.786694 -0.431937 -0.681828 15.770580 -0.474901 -0.310942 -0.068524 9.267131 -1.322268 0.548761 0.000000 0.000000 0.000000 -139.415966 36.971472 52.244265 -86.411232 13.751247 -32.555760 -44.862456 -17.300138 51.268412 30.123175 22.717752 -71.915556 0.000000 0.000000 0.000000 0.000000 0.000000 0.000000 114.695664 22.264923 -2.776551 110.668815 3.908229 63.386216 23.533622 -12.822909 -36.929913 -15.150160 4.541004 32.668361 0.000000 0.000000 0.000000 0.000000 0.000000 0.000000 1.015178 9.023012 13.778336 -4.934549 -15.540603 1.046941 1.510285 5.304247 2.030655 0.000000 0.000000 0.000000 0.260059 -0.588738 15.667401 2.237546 -4.245426 1.326463 0.368766 4.127659 -8.273946 0.000000 0.000000 0.000000
29.039833 70.761369 357.765684 -0.051186 2.088848 -15.574812 -0.395882 -0.698986 15.558788 -0.351062 -0.344801 -0.057307 9.367061 -0.280982 0.224641 0.000000 0.000000 0.000000 -141.252356 36.315058 53.218125 -87.431652 11.084746 -13.415484 -44.929168 -3.498789 41.880160 30.480301 16.286757 -67.947156 0.000000 0.000000 0.000000 0.000000 0.000000 0.000000 113.840368 21.938656 -2.705137 113.860256 2.303593 54.755376 20.157654 -8.752421 -35.508099 -12.458450 1.871091 29.808933 0.000000 0.000000 0.000000 0.000000 0.000000 0.000000 1.109700 9.469907 13.534211 -5.557520 -15.677646 0.808639 1.942602 5.214444 2.114921 0.000000 0.000000 0.000000 -0.735834 -1.804210 15.173648 4.501985 -2.090324 1.586807 -0.849511 6.619456 -6.690655 0.000000 0.000000 0.000000
29.046344 70.734560 357.683435 -0.053427 1.939727 -15.316420 -0.358090 -0.634082 15.303199 -0.266440 -0.298519 -0.046362 8.974440 0.041152 0.091180 0.000000 0.000000 0.000000 -142.286565 36.036000 53.702430 -89.891408 10.972110 -3.993381 -42.376322 3.218775 35.633976 33.962176 29.813072 -80.001396 0.000000 0.000000 0.000000 0.000000 0.000000 0.000000 113.918984 22.068030 -2.980929 116.211686 1.387431 47.436871 15.362132 -6.798987 -35.693121 -10.787905 -4.413047 21.607385 0.000000 0.000000 0.000000 0.000000 0.000000 0.000000 1.164625 9.732487 13.253899 -6.201925 -15.588629 0.517745 2.480092 5.013085 2.238696 0.000000 0.000000 0.000000 -1.770775 -3.404965 14.600808 7.119693 1.113670 1.632561 -1.153773 4.214528 -9.388704 0.000000 0.000000 0.000000
29.075445 70.649898 357.609868 -0.032280 1.823395 -15.002699 -0.360296 -0.558832 14.991121 -0.198485 -0.250322 -0.037467 8.568125 -0.673190 0.331599 0.000000 0.000000 0.000000 -142.115700 36.357665 53.911066 -93.324473 11.160809 4.215688 -37.438072 10.813590 26.962141 33.703377 40.492993 -86.609033 0.000000 0.000000 0.000000 0.000000 0.000000 0.000000 113.110272 21.662773 -2.395063 118.661708 0.253805 42.543667 9.704678 -7.129024 -38.460091 -6.615039 -7.488396 15.918452 0.000000 0.000000 0.000000 0.000000 0.000000 0.000000 1.187192 9.769630 12.948912 -5.985882 -15.733725 0.622426 2.261822 5.224683 2.209557 0.000000 0.000000 0.000000 -2.080096 -3.860456 14.208059 7.874632 2.249605 1.573513 -2.533120 0.932174 -7.479194 0.000000 0.000000 0.000000
29.054477 70.547745 357.550768 -0.090975 1.731927 -14.603497 -0.338337 -0.529643 14.591991 -0.161577 -0.260427 -0.035916 8.631483 -1.562484 0.684867 0.000000 0.000000 0.000000 -141.292357 36.813566 53.935316 -95.760097 11.412284 8.509574 -31.393400 19.544449 15.445433 20.180790 31.621624 -69.989771 0.000000 0.000000 0.000000 0.000000 0.000000 0.000000 112.432749 21.228083 -1.903939 120.547519 -0.746050 39.145392 5.054067 -10.050510 -43.858321 -2.173818 -3.411048 19.192491 0.000000 0.000000 0.000000 0.000000 0.000000 0.000000 1.175027 10.408654 12.411840 -5.882973 -16.509429 0.768660 2.182860 5.427512 2.188535 0.000000 0.000000 0.000000 -1.625261 -3.695277 13.956093 6.843352 2.044820 1.377234 -1.375024 1.111019 -8.972503 0.000000 0.000000 0.000000
29.062012 70.432183 357.513404 -0.135511 1.729544 -14.246769 -0.332938 -0.491398 14.235656 -0.161695 -0.240345 -0.036561 9.222162 -3.165011 1.314744 0.000000 0.000000 0.000000 -141.167211 36.997572 54.038321 -96.914996 11.539030 10.607333 -30.779549 16.352178 18.132661 27.967098 25.807340 -76.456261 0.000000 0.000000 0.000000 0.000000 0.000000 0.000000 111.760063 20.824490 -1.271327 122.292032 -1.971206 35.654961 1.559582 -11.077860 -46.225283 3.100334 2.642917 22.355827 0.000000 0.000000 0.000000 0.000000 0.000000 0.000000 1.107529 11.036922 11.892010 -5.786359 -17.527956 0.921254 2.171865 5.797591 2.169268 0.000000 0.000000 0.000000 -0.633590 -2.192088 13.901420 4.146452 -0.878384 1.281835 -2.134219 -1.909668 -3.668744 0.000000 0.000000 0.000000
29.047624 70.321308 357.480818 -0.198215 1.722885 -13.903406 -0.346071 -0.456150 13.891324 -0.173986 -0.244190 -0.040512 10.149907 -4.581781 1.929506 0.000000 0.000000 0.000000 -141.047285 37.184346 54.236614 -97.383961 12.131592 9.820717 -44.422005 15.297055 26.906974 60.953854 25.158250 -115.639209 0.000000 0.000000 0.000000 0.000000 0.000000 0.000000 111.251886 20.564282 -0.873090 122.840574 -2.871271 34.119673 3.680539 -14.521588 -48.721397 -1.986232 4.319208 27.500440 0.000000 0.000000 0.000000 0.000000 0.000000 0.000000 1.713520 10.138870 11.816933 -6.190946 -16.434905 0.625872 2.211596 5.731254 2.203509 0.000000 0.000000 0.000000 0.155220 -0.934294 13.771108 2.416403 -3.156093 1.222090 -2.955032 -4.712573 0.801523 0.000000 0.000000 0.000000
